<?xml version="1.0" encoding="utf-8"?>
<!-- Generator: Adobe Illustrator 22.0.1, SVG Export Plug-In . SVG Version: 6.00 Build 0)  -->
<svg version="1.1" id="Layer_1" xmlns="http://www.w3.org/2000/svg" xmlns:xlink="http://www.w3.org/1999/xlink" x="0px" y="0px"
	 viewBox="0 0 595.3 595.3" style="enable-background:new 0 0 595.3 595.3;" xml:space="preserve">
<style type="text/css">
	.st0{fill:#424242;}
	.st1{fill:#FFFFFF;}
</style>
<path class="st0" d="M595.3,99.6v397.9c0,0,5.6,93.7-100.2,97.8H97c0,0-96.4,0.2-96.7-100.2V90.4c0,0-1.6-83,96.4-90.4l407.7,0.3
	C504.4,0.3,592.6,1.3,595.3,99.6z"/>
<g>
	<path class="st1" d="M167.8,495.1c-1.7-0.2-3.5-0.6-5.2-0.7c-11.4-0.9-22.4-3.3-33-7.5c-23.1-9.3-38.8-25.9-47.6-49
		c-3.3-8.7-5-17.6-5.9-26.8c-0.9-8.6-0.7-17.3-0.7-25.9c0-0.3,0.1-0.6,0.1-1c13.3-5.8,26.5-11.7,40.1-17.6c0,1,0,1.6,0,2.3
		c0,8.5,0,17,0,25.6c0.1,9.2,0.9,18.4,3.6,27.2c4.9,16.4,15,28.2,30.9,34.7c5.2,2.1,10.7,3.3,16.3,3.9c5.8,0.7,11.7,0.8,17.5,0.3
		c10-0.8,19.6-3,28.1-8.6c12.1-7.9,19.5-19.1,23.1-33c2.3-8.9,2.9-18,2.9-27.2c0-25.5,0-51,0-76.5c0-0.8,0-1.6,0-2.5
		c13.3-5.9,26.6-11.7,40.1-17.7c0,0.9,0.1,1.6,0.1,2.3c0,10.7,0,21.4,0,32.1c0,22.1,0,44.2,0,66.3c0,9.5-0.6,18.9-2.6,28.1
		c-6.2,29.3-22.8,50.2-50.4,62.2c-10.3,4.5-21.1,7-32.3,8.1c-2.4,0.2-4.7,0.4-7.1,0.7c-0.5,0.1-1.1,0.2-1.6,0.4
		C178.7,495.1,173.3,495.1,167.8,495.1z"/>
	<path class="st1" d="M73.5,363.9c0.8,0,1.6,0,2.5,0c0,3.1,0,6.1,0,9.3c-0.8,0.1-1.6,0.1-2.5,0.2C73.5,370.3,73.5,367.1,73.5,363.9z
		"/>
	<path class="st1" d="M73.5,349.7c0.8,0.1,1.5,0.1,2.5,0.2c0,3,0,6,0,9.2c-0.8,0-1.6,0.1-2.5,0.1C73.5,356,73.5,352.9,73.5,349.7z"
		/>
	<path class="st1" d="M73.5,250.7c0.8,0,1.6,0,2.5,0c0,3.1,0,6.1,0,9.2c-0.8,0.1-1.6,0.2-2.5,0.3C73.5,257,73.5,253.9,73.5,250.7z"
		/>
	<path class="st1" d="M73.5,307.3c0.8,0,1.6,0,2.5,0c0,3.1,0,6.1,0,9.2c-0.8,0.1-1.6,0.2-2.5,0.3C73.5,313.7,73.5,310.5,73.5,307.3z
		"/>
	<path class="st1" d="M73.5,335.4c0.8,0.1,1.5,0.2,2.5,0.3c0.2,1.5,0.1,3,0.1,4.4c0,1.5,0,3,0,4.7c-0.9,0-1.8,0-2.6,0
		C73.5,341.8,73.5,338.6,73.5,335.4z"/>
	<path class="st1" d="M73.5,236.4c0.8,0,1.6,0.1,2.5,0.1c0,3.1,0,6.1,0,9.2c-0.8,0.1-1.6,0.1-2.5,0.2
		C73.5,242.8,73.5,239.6,73.5,236.4z"/>
	<path class="st1" d="M73.5,293.1c0.8,0,1.6,0.1,2.5,0.1c0,3,0,6,0,9.2c-0.8,0-1.6,0.1-2.5,0.1C73.5,299.4,73.5,296.2,73.5,293.1z"
		/>
	<path class="st1" d="M73.5,278.8c0.8,0.1,1.5,0.2,2.6,0.3c0,1.5,0,3,0,4.4c0,1.5,0,3,0,4.8c-0.9,0-1.8,0-2.6,0
		C73.5,285.2,73.5,282,73.5,278.8z"/>
	<path class="st1" d="M73.5,229.9c3.6,0,7.1,0,10.8,0c0,0.8,0,1.3,0,2.2c-3.6-0.1-7.2,0.3-10.8-0.4
		C73.5,231.1,73.5,230.5,73.5,229.9z"/>
	<path class="st1" d="M73.5,321.6c0.8,0,1.6,0,2.5,0c0,3.1,0,6,0,9.3c-0.8,0-1.6-0.1-2.5-0.1C73.5,327.7,73.5,324.6,73.5,321.6z"/>
	<path class="st1" d="M73.5,264.9c0.8,0,1.6,0,2.5,0c0,3,0,6,0,9.1c-0.8,0-1.6,0-2.5,0C73.5,271,73.5,268,73.5,264.9z"/>
	<path class="st1" d="M517.8,140.7c-0.7,0-1.3,0-2.1,0c0-3.1,0-6.1,0-9.2c0.7-0.1,1.4-0.2,2.1-0.3
		C517.8,134.4,517.8,137.6,517.8,140.7z"/>
	<path class="st1" d="M517.8,181.3c-1,0.4-2,0.8-3.1,1.3c-0.3-0.7-0.6-1.3-0.9-1.9c0.6-0.3,1.1-0.6,1.7-1c0-1.8,0-3.6,0-5.7
		c0.8,0,1.5,0,2.2,0C517.8,176.4,517.8,178.8,517.8,181.3z"/>
	<path class="st1" d="M517.8,169.2c-0.7-0.1-1.3-0.1-2.1-0.2c0-3,0-6,0-9.3c0.7,0,1.4,0,2.1,0C517.8,162.9,517.8,166.1,517.8,169.2z
		"/>
	<path class="st1" d="M517.8,155c-0.7,0-1.3-0.1-2.1-0.1c0-3.1,0-6.1,0-9.2c0.7-0.1,1.4-0.1,2.1-0.2
		C517.8,148.6,517.8,151.8,517.8,155z"/>
	<path class="st1" d="M517.8,112.6c-0.6-0.1-1.3-0.1-2.1-0.2c0-3,0-6,0-9.3c0.7,0,1.4,0,2.1,0C517.8,106.3,517.8,109.4,517.8,112.6z
		"/>
	<path class="st1" d="M517.8,126.5c-0.7,0-1.3,0.1-2.1,0.1c0-3.1,0-6.1,0-9.3c0.7,0,1.4,0.1,2.1,0.1
		C517.8,120.4,517.8,123.4,517.8,126.5z"/>
	<path class="st1" d="M359.4,256.4c0,7.1,0,22.6-0.1,22.4c3.7-5.6,8-10.8,12.8-15.4c13.3-12.9,29-21.4,47-25.7
		c11-2.7,22.1-3.5,33.3-2.6c0.5,0,0.9,0.2,1.4,0.2c0.4,1.5,0.5,36.5,0.1,38.5c-0.5,0-1.1,0.1-1.7,0.1c-7.7-0.1-15.4,0.4-23.1,1.6
		c-18.2,2.7-35.2,8.5-50.3,19.3c-7.4,5.3-13.7,11.7-18.7,19.3c-0.8,1.3-1.2,2.5-1.2,4.1c0,55.8,0,117.8,0,173.6c0,0.8,0,1.6,0,2.3
		c-1.5,0.5-38.5,0.5-40.4,0.1c0-0.5,0-1.1,0-1.7c0-70,0-146.1,0-216.1c0-1.3,0.3-2,1.6-2.6c10.7-4.6,21.3-9.3,31.9-14
		C352.4,259.5,358.9,256.6,359.4,256.4z"/>
	<path class="st1" d="M476.3,207.6c13.3-5.9,26.6-11.7,40.2-17.7c0,99.6,0,205.4,0,304.6c-1.4,0.4-38.4,0.5-40.2,0
		C476.3,401.2,476.3,301.2,476.3,207.6z"/>
	<path class="st1" d="M319.2,232.1c0,3.1,0,6,0,8.9c-0.5,0.1-0.8,0.1-1.1,0.1c-0.3,0-0.6,0-1-0.1c-0.1-0.4-0.2-0.8-0.2-1.2
		c0-2.3,0-4.6,0-6.9c0-0.5,0-2.3,0-2.9c0.5,0,0.7,0,1.4,0c2.8,0,5.8,0,8.9,0c0,0.6,0,1.2,0,2.1C324.7,232.1,322.1,232.1,319.2,232.1
		z"/>
	<path class="st1" d="M477,102.5c0,1.8,0,3.3,0,4.9c-0.8,0-1.4,0-2.2,0c0-2.3,0-4.6,0-6.9c1.2-0.4,7.9-0.5,10.3-0.1
		c0,0.6,0,1.2,0,2.1c-1.4,0-2.7,0-4,0C479.8,102.5,478.6,102.5,477,102.5z"/>
	<path class="st1" d="M476.9,112.3c0,3.2,0,6.2,0,9.3c-0.7,0-1.3,0.1-2.2,0.1c0-1.6,0-3.1-0.1-4.6c0-1.5,0-3,0-4.7
		C475.5,112.4,476.1,112.4,476.9,112.3z"/>
	<path class="st1" d="M474.8,169.1c0.7,0,1.3,0,2.1,0c0,3.1,0,6.1,0,9.1c-0.7,0-1.3,0-2.1,0C474.8,175.2,474.8,172.2,474.8,169.1z"
		/>
	<path class="st1" d="M116.8,256.1c-0.7,0-1.3,0-2.2,0c0-3-0.1-6,0-9.2c0.7,0,1.4,0,2.1,0C116.8,249.9,116.8,252.9,116.8,256.1z"/>
	<path class="st1" d="M116.8,270.3c-0.7,0-1.3,0-2.1,0c-0.1-3.1-0.1-6.1,0-9.2c0.8,0,1.4,0,2.1,0
		C116.8,264.2,116.8,267.2,116.8,270.3z"/>
	<path class="st1" d="M114.7,303.5c0.8,0,1.4,0,2.1,0c0,3.1,0,6,0,9.1c-0.7,0-1.4,0-2.1,0C114.7,309.6,114.7,306.6,114.7,303.5z"/>
	<path class="st1" d="M116.8,317.8c0,3,0,6,0,9.1c-0.7,0-1.4,0-2.1,0c0-3,0-6,0-9.1C115.4,317.8,116.1,317.8,116.8,317.8z"/>
	<path class="st1" d="M474.8,183.2c0.7,0,1.3,0,2.1,0c0,3.1,0,6.1,0,9.2c-0.7,0-1.3,0-2.1,0C474.8,189.4,474.8,186.4,474.8,183.2z"
		/>
	<path class="st1" d="M474.8,126.6c0.7,0,1.4,0,2.1,0c0,3.1,0,6.1,0,9.2c-0.8,0-1.4,0-2.1,0C474.8,132.7,474.8,129.7,474.8,126.6z"
		/>
	<path class="st1" d="M476.9,150c-0.7,0-1.3,0-2.1,0c0-3.1,0-6,0-9.1c0.7,0,1.3,0,2.1,0C476.9,143.9,476.9,146.8,476.9,150z"/>
	<path class="st1" d="M114.7,331.9c0.8,0,1.4,0,2.2,0c0,1.5,0,3,0.1,4.5c0,1.5,0,3,0,4.7c-0.8,0-1.5,0-2.2,0
		C114.7,338,114.7,335,114.7,331.9z"/>
	<path class="st1" d="M116.8,284.4c-0.8,0-1.4,0-2.1,0c0-3.1,0-6.1,0-9.2c0.7,0,1.4,0,2.1,0C116.8,278.3,116.8,281.3,116.8,284.4z"
		/>
	<path class="st1" d="M114.7,289.4c0.8,0,1.4,0,2.1,0c0,3.1,0,6,0,9.1c-0.7,0-1.4,0-2.1,0C114.7,295.5,114.7,292.5,114.7,289.4z"/>
	<path class="st1" d="M116.8,241.9c-0.7,0-1.3,0-1.9,0c-0.4-1.4-0.5-7.1-0.1-9.2c0.6,0,1.2,0,2,0
		C116.8,235.8,116.8,238.8,116.8,241.9z"/>
	<path class="st1" d="M114.7,346.1c0.8,0,1.3,0,2.1,0c0,3,0,6,0,9.1c-0.7,0-1.3,0-2.1,0C114.7,352.1,114.7,349.2,114.7,346.1z"/>
	<path class="st1" d="M474.8,154.9c0.8,0,1.3,0,2.2,0c0.1,3.1,0.1,6.1,0,9.1c-0.8,0-1.4,0-2.2,0C474.8,161,474.8,158.1,474.8,154.9z
		"/>
	<path class="st1" d="M474.8,199.8c0-1,0-1.6,0-2.4c2.7-1.2,5.5-2.4,8.5-3.7c0.3,0.7,0.6,1.3,1,2.1
		C481.1,197.1,478.1,198.4,474.8,199.8z"/>
	<path class="st1" d="M248.4,297.1c0.3,0.8,0.6,1.3,0.9,2.1c-2.9,1.2-5.6,2.4-8.5,3.7c-0.3-0.7-0.6-1.3-0.9-2.1
		C242.8,299.6,245.5,298.4,248.4,297.1z"/>
	<path class="st1" d="M86.4,368.4c0.3,0.8,0.6,1.3,0.9,2.1c-2.8,1.2-5.6,2.4-8.5,3.7c-0.3-0.7-0.6-1.3-0.9-2.1
		C80.7,370.8,83.5,369.6,86.4,368.4z"/>
	<path class="st1" d="M99.4,362.8c0.3,0.7,0.6,1.3,0.9,2.1c-2.8,1.2-5.6,2.4-8.5,3.7c-0.3-0.7-0.6-1.2-1-2
		C93.7,365.2,96.5,364,99.4,362.8z"/>
	<path class="st1" d="M357.2,248.3c-0.1-2.9-0.1-5.2-0.1-8.6c0.8,0,1.5,0,2.3,0.1c0,2.9,0,5.7,0,8.5
		C358.4,248.3,358.2,248.3,357.2,248.3z"/>
	<path class="st1" d="M501.7,188.2c-0.3-0.7-0.6-1.3-0.9-2.1c2.9-1.2,5.6-2.4,8.6-3.7c0.3,0.7,0.6,1.3,0.9,2.1
		C507.3,185.8,504.6,187,501.7,188.2z"/>
	<path class="st1" d="M253.8,297.3c-0.3-0.8-0.6-1.3-0.9-2.1c2.8-1.2,5.6-2.4,8.5-3.7c0.3,0.7,0.6,1.3,0.9,2.1
		C259.5,294.8,256.7,296,253.8,297.3z"/>
	<path class="st1" d="M274.5,285.9c0.3,0.8,0.5,1.4,0.8,2.1c-2.8,1.2-5.6,2.4-8.5,3.7c-0.3-0.7-0.6-1.3-0.9-2.1
		C268.8,288.4,271.5,287.2,274.5,285.9z"/>
	<path class="st1" d="M112.4,357.2c0.4,0.8,0.6,1.3,0.9,2c-2.8,1.2-5.6,2.4-8.5,3.7c-0.3-0.7-0.6-1.2-1-2
		C106.7,359.7,109.4,358.5,112.4,357.2z"/>
	<path class="st1" d="M348,250.8c0.3,0.8,0.6,1.4,0.9,2.1c-2.9,1.2-5.6,2.4-8.5,3.7c-0.3-0.7-0.6-1.3-0.9-2.1
		C342.3,253.2,345.1,252,348,250.8z"/>
	<path class="st1" d="M358.6,246.2c0.3,0.8,0.6,1.4,0.9,2.1c-2.9,1.2-4.5,2-7.4,3.3c-0.3-0.7-0.6-1.3-0.9-2.1
		C353.9,248.2,355.6,247.4,358.6,246.2z"/>
	<path class="st1" d="M334.9,256.4c0.3,0.7,0.6,1.3,0.9,2c-2.8,1.2-5.6,2.4-8.4,3.7c-0.4-0.6-0.7-1.2-1.1-2
		C329.3,258.8,332.1,257.6,334.9,256.4z"/>
	<path class="st1" d="M488.7,193.8c-0.3-0.8-0.6-1.3-0.9-2.1c2.8-1.2,5.6-2.4,8.5-3.7c0.3,0.7,0.6,1.3,0.9,2.1
		C494.4,191.4,491.6,192.5,488.7,193.8z"/>
	<path class="st1" d="M359.4,236.3c-0.8,0.2-1.4,0.3-2.2,0.4c-0.1-1.7,0-3.1,0-4.7c-0.8-0.1-2.6,0-3.5-0.1c0-0.7,0-1.3,0-2
		c1.5,0,4.1,0,5.7,0C359.4,232.1,359.4,234.1,359.4,236.3z"/>
	<path class="st1" d="M322.2,262.5c0.3,0.6,0.5,1.2,0.8,1.8c-1.8,1.1-3,1.4-5.7,1.5c-0.4-1.3-0.4-3.7-0.1-5.6c0.5,0,1.1-0.1,1.8-0.1
		c0.1,0.6,0.1,1,0.2,1.5c0,0.5,0.1,1,0.1,1.7C320.3,263,321.2,262.7,322.2,262.5z"/>
	<path class="st1" d="M238.5,244.4c-0.6,0-1.1,0-1.9,0c0-3,0-6,0-9.2c0.6,0,1.1-0.1,1.7-0.1C238.8,236.4,238.9,242.1,238.5,244.4z"
		/>
	<path class="st1" d="M279.4,256.1c-0.7,0-1.3,0-2,0c0-3.1,0-6.1,0-9.2c0.7,0,1.3,0,2,0C279.4,249.9,279.4,252.9,279.4,256.1z"/>
	<path class="st1" d="M238.5,258.5c-0.2,0-0.4,0.1-0.7,0.1c-0.4,0-0.7-0.1-1.2-0.1c0-3.1,0-6.1,0-9.2c0.6,0,1.2-0.1,1.7-0.1
		C238.8,250.6,238.9,256.6,238.5,258.5z"/>
	<path class="st1" d="M277.6,261c0.6,0,1.2,0,1.9,0c0,3,0,6,0,9.2c-0.6,0-1.2,0.1-1.7,0.1C277.2,269.1,277.1,263.2,277.6,261z"/>
	<path class="st1" d="M338.6,230c0,0.7,0,1.2,0,1.7c-1.3,0.4-5.6,0.5-7.7,0.1c0-0.6,0-1.1,0-1.9C333.9,230,335.4,230,338.6,230z"/>
	<path class="st1" d="M350.1,230c0,0.7,0,1.2,0,1.7c-1.3,0.4-5.6,0.5-7.7,0.1c0-0.6,0-1.1,0-1.9C345.4,230,346.9,230,350.1,230z"/>
	<path class="st1" d="M279.4,284.5c-0.7,0-1.3,0-1.9,0c-0.5-1.5-0.2-3-0.2-4.5c-0.1-1.5,0-3,0-4.7c0.7,0,1.4,0,2.1,0
		C279.4,278.3,279.4,281.3,279.4,284.5z"/>
	<path class="st1" d="M251.9,231.9c0-0.7,0-1.3,0-2c3,0,6.1,0,9.2,0c0,0.6,0,1.2,0,2C258,231.9,255,231.9,251.9,231.9z"/>
	<path class="st1" d="M246.9,230.1c0,0.6,0,1.1,0,1.8c-3.1,0-6.1,0-9.2,0c0-0.6-0.1-1.2-0.1-1.8C239,229.8,245.1,229.7,246.9,230.1z
		"/>
	<path class="st1" d="M513.6,100.5c0,0.5,0,1.1,0,1.8c-3.1,0.4-6.1,0.2-9.2,0.1c0-0.8,0-1.4,0-2
		C506.5,100.1,512.3,100.1,513.6,100.5z"/>
	<path class="st1" d="M317.1,246c0.6-0.1,1.2-0.1,1.9-0.2c0.5,1.6,0.2,3.1,0.2,4.6c0,1.5,0,3,0,4.7c-0.7,0-1.4,0-2.1,0
		C317.1,252.1,317.1,249.1,317.1,246z"/>
	<path class="st1" d="M490.1,102.3c0-0.7,0-1.3,0-2c3,0,6,0,9.2,0c0,0.6,0.1,1.2,0.1,1.8C498.1,102.6,492.8,102.7,490.1,102.3z"/>
	<path class="st1" d="M236.6,301c0-3.1,0-6,0-9.1c0.6,0,1.2-0.1,1.8-0.1c0.5,1.3,0.6,7.1,0.2,9.3C237.9,301,237.3,301,236.6,301z"/>
	<path class="st1" d="M236.6,263.6c0.7,0,1.3,0,2,0c0,3.1,0,6.1,0,9.2c-0.7,0-1.3,0-2,0C236.6,269.7,236.6,266.7,236.6,263.6z"/>
	<path class="st1" d="M236.6,286.8c0-3.1,0-6,0-9.1c0.7,0,1.3,0,2.1,0c0,3.1,0,6.1,0,9.1C238,286.8,237.4,286.8,236.6,286.8z"/>
	<path class="st1" d="M277.4,232.7c0.7,0,1.4,0,2,0c0,3.1,0,6,0,9.1c-0.7,0-1.3,0-2,0C277.4,238.8,277.4,235.9,277.4,232.7z"/>
	<path class="st1" d="M275.2,229.9c0,0.7,0,1.3,0,1.8c-1.3,0.4-6.5,0.5-9.1,0.2c0-0.3-0.1-0.7-0.1-1c0-0.3,0.1-0.6,0.1-0.9
		C269.2,229.9,272.1,229.9,275.2,229.9z"/>
	<path class="st1" d="M103.4,231.9c0-0.7,0-1.2,0-2c3,0,6,0,9.1,0c0,0.7,0,1.2,0,2C109.5,231.9,106.5,231.9,103.4,231.9z"/>
	<path class="st1" d="M89.2,231.9c0-0.6,0-1.2,0-1.7c1.3-0.4,6.7-0.5,9.1-0.1c0,0.2,0.1,0.5,0.1,0.8c0,0.3,0,0.6-0.1,0.9
		C97.1,232.1,91.8,232.2,89.2,231.9z"/>
</g>
</svg>
